<svg width="28" height="27" viewBox="0 0 28 27" fill="none" xmlns="http://www.w3.org/2000/svg">
<path d="M13.5698 0L0 10.1311V26.2424H27.1363V10.1311L13.5698 0ZM9.81581 7.22931C10.214 6.50156 10.7626 5.95363 11.4586 5.58993C12.1529 5.22316 12.9451 5.03858 13.8411 5.03858C14.5964 5.03858 15.271 5.18699 15.8612 5.47938C16.4511 5.77621 16.9001 6.19382 17.2147 6.73732C17.5217 7.28151 17.6811 7.87482 17.6811 8.51727C17.6811 9.2839 17.4443 9.97718 16.9707 10.5975C16.3771 11.3794 15.6193 11.7698 14.6916 11.7698C14.4419 11.7698 14.2553 11.7281 14.1273 11.6401C14.0028 11.5507 13.9155 11.4245 13.8738 11.2549C13.5251 11.6002 13.1126 11.7735 12.6493 11.7735C12.1495 11.7735 11.7353 11.6005 11.4064 11.2587C11.0768 10.9134 10.9127 10.4531 10.9127 9.88336C10.9127 9.17234 11.1099 8.53023 11.5074 7.94818C11.9905 7.23715 12.6053 6.88028 13.358 6.88028C13.894 6.88028 14.2897 7.08533 14.5436 7.49611L14.6565 6.99525H15.8506L15.169 10.2293C15.1263 10.4361 15.1052 10.5657 15.1052 10.6261C15.1052 10.7039 15.1229 10.7558 15.156 10.7957C15.1898 10.8336 15.2321 10.852 15.2778 10.852C15.4265 10.852 15.6118 10.7674 15.8394 10.5896C16.1468 10.3634 16.3945 10.0526 16.5835 9.67012C16.7725 9.28493 16.8697 8.88574 16.8697 8.47326C16.8697 7.7346 16.6029 7.11637 16.0673 6.61552C15.5306 6.12081 14.781 5.87004 13.823 5.87004C13.0065 5.87004 12.316 6.03619 11.7496 6.37089C11.1833 6.70047 10.7558 7.17028 10.4651 7.77451C10.1788 8.37499 10.0359 9.00516 10.0359 9.65784C10.0359 10.2911 10.1993 10.8697 10.5173 11.389C10.8397 11.912 11.2883 12.2901 11.867 12.5302C12.4456 12.7681 13.1099 12.8871 13.8554 12.8871C14.5709 12.8871 15.1891 12.7872 15.7087 12.5865C16.228 12.3863 16.6432 12.0894 16.9595 11.6855H17.9172C17.6169 12.2969 17.1574 12.7745 16.5357 13.1236C15.822 13.5204 14.9526 13.7172 13.9277 13.7172C12.9322 13.7172 12.0765 13.5511 11.3545 13.2164C10.6309 12.88 10.0959 12.3859 9.74075 11.7322C9.39001 11.0778 9.21703 10.3648 9.21703 9.5937C9.21771 8.74859 9.41492 7.95978 9.81581 7.22931ZM0.956674 10.4507L10.9683 17.1652L0.956674 24.9141V10.4507ZM1.71717 25.4297L13.5698 16.257L25.4187 25.4297H1.71717ZM26.1786 24.9141L16.169 17.1652L26.1789 10.4507V24.9141H26.1786ZM14.0584 7.96694C14.2174 8.14811 14.2969 8.40877 14.2969 8.74893C14.2969 9.05292 14.2375 9.38216 14.1219 9.73119C14.0079 10.0847 13.8684 10.3542 13.7094 10.5367C13.6009 10.6647 13.4849 10.7592 13.3709 10.8185C13.2211 10.9035 13.0618 10.9448 12.8899 10.9448C12.6599 10.9468 12.4702 10.8547 12.3129 10.6739C12.1594 10.4927 12.0833 10.2146 12.0833 9.83286C12.0833 9.54661 12.1372 9.21703 12.2495 8.84719C12.3617 8.47598 12.5258 8.19349 12.7452 7.99117C12.9659 7.79055 13.2044 7.69058 13.4617 7.69058C13.7026 7.69229 13.9028 7.78407 14.0584 7.96694Z" fill="white"/>
</svg>
