<svg width="58" height="60" viewBox="0 0 58 60" fill="none" xmlns="http://www.w3.org/2000/svg">
<g filter="url(#filter0_d)">
<path d="M49.2622 0H12.7377C9.01662 0 6 3.0165 6 6.73765V43.2625C6 46.9836 9.0165 50.0001 12.7377 50.0001H30.7514L30.7821 32.1328H26.1402C25.5369 32.1328 25.0473 31.645 25.045 31.0417L25.0227 25.2824C25.0204 24.6758 25.5115 24.1829 26.118 24.1829H30.7515V18.6179C30.7515 12.1597 34.6958 8.64318 40.4569 8.64318H45.1843C45.7891 8.64318 46.2796 9.13353 46.2796 9.73849V14.5948C46.2796 15.1996 45.7895 15.6898 45.1849 15.6902L42.2837 15.6915C39.1507 15.6915 38.544 17.1803 38.544 19.3652V24.183H45.4284C46.0844 24.183 46.5933 24.7558 46.516 25.4072L45.8334 31.1666C45.7681 31.7178 45.3007 32.133 44.7458 32.133H38.5747L38.544 50.0004H49.2625C52.9835 50.0004 56 46.9839 56 43.2628V6.73765C55.9999 3.0165 52.9834 0 49.2622 0Z" fill="white"/>
</g>
<defs>
<filter id="filter0_d" x="0" y="0" width="58" height="60.0004" filterUnits="userSpaceOnUse" color-interpolation-filters="sRGB">
<feFlood flood-opacity="0" result="BackgroundImageFix"/>
<feColorMatrix in="SourceAlpha" type="matrix" values="0 0 0 0 0 0 0 0 0 0 0 0 0 0 0 0 0 0 127 0"/>
<feOffset dx="-2" dy="6"/>
<feGaussianBlur stdDeviation="2"/>
<feColorMatrix type="matrix" values="0 0 0 0 0 0 0 0 0 0 0 0 0 0 0 0 0 0 0.5 0"/>
<feBlend mode="normal" in2="BackgroundImageFix" result="effect1_dropShadow"/>
<feBlend mode="normal" in="SourceGraphic" in2="effect1_dropShadow" result="shape"/>
</filter>
</defs>
</svg>
