<svg width="58" height="60" viewBox="0 0 58 60" fill="none" xmlns="http://www.w3.org/2000/svg">
<g filter="url(#filter0_d)">
<path d="M40.375 0H21.625C12.9969 0 6 6.99688 6 15.625V34.375C6 43.0031 12.9969 50 21.625 50H40.375C49.0031 50 56 43.0031 56 34.375V15.625C56 6.99688 49.0031 0 40.375 0ZM51.3125 34.375C51.3125 40.4062 46.4062 45.3125 40.375 45.3125H21.625C15.5938 45.3125 10.6875 40.4062 10.6875 34.375V15.625C10.6875 9.59375 15.5938 4.6875 21.625 4.6875H40.375C46.4062 4.6875 51.3125 9.59375 51.3125 15.625V34.375Z" fill="white"/>
<path d="M31 12.5C24.0969 12.5 18.5 18.0969 18.5 25C18.5 31.9031 24.0969 37.5 31 37.5C37.9031 37.5 43.5 31.9031 43.5 25C43.5 18.0969 37.9031 12.5 31 12.5ZM31 32.8125C26.6937 32.8125 23.1875 29.3063 23.1875 25C23.1875 20.6906 26.6937 17.1875 31 17.1875C35.3063 17.1875 38.8125 20.6906 38.8125 25C38.8125 29.3063 35.3063 32.8125 31 32.8125Z" fill="white"/>
<path d="M44.4375 13.2281C45.3574 13.2281 46.1031 12.4824 46.1031 11.5625C46.1031 10.6426 45.3574 9.89687 44.4375 9.89687C43.5176 9.89687 42.7719 10.6426 42.7719 11.5625C42.7719 12.4824 43.5176 13.2281 44.4375 13.2281Z" fill="white"/>
</g>
<defs>
<filter id="filter0_d" x="0" y="0" width="58" height="60" filterUnits="userSpaceOnUse" color-interpolation-filters="sRGB">
<feFlood flood-opacity="0" result="BackgroundImageFix"/>
<feColorMatrix in="SourceAlpha" type="matrix" values="0 0 0 0 0 0 0 0 0 0 0 0 0 0 0 0 0 0 127 0"/>
<feOffset dx="-2" dy="6"/>
<feGaussianBlur stdDeviation="2"/>
<feColorMatrix type="matrix" values="0 0 0 0 0 0 0 0 0 0 0 0 0 0 0 0 0 0 0.5 0"/>
<feBlend mode="normal" in2="BackgroundImageFix" result="effect1_dropShadow"/>
<feBlend mode="normal" in="SourceGraphic" in2="effect1_dropShadow" result="shape"/>
</filter>
</defs>
</svg>
