<svg width="21" height="27" viewBox="0 0 21 27" fill="none" xmlns="http://www.w3.org/2000/svg">
<path d="M10.5 0C5.10817 0 0.721619 4.38655 0.721619 9.77833C0.721619 16.4697 9.47231 26.293 9.84488 26.7079C10.1948 27.0977 10.8058 27.097 11.1551 26.7079C11.5277 26.293 20.2784 16.4697 20.2784 9.77833C20.2783 4.38655 15.8918 0 10.5 0ZM10.5 14.6981C7.78724 14.6981 5.5803 12.4911 5.5803 9.77833C5.5803 7.06556 7.78729 4.85863 10.5 4.85863C13.2127 4.85863 15.4196 7.06562 15.4196 9.77838C15.4196 12.4911 13.2127 14.6981 10.5 14.6981Z" fill="white"/>
</svg>
