<svg width="25" height="43" viewBox="0 0 25 43" fill="none" xmlns="http://www.w3.org/2000/svg">
<path d="M22.0933 0H2.90675C1.30828 0 0 1.28495 0 2.85758V39.4489C0 41.0215 1.30828 42.3077 2.90675 42.3077H22.0933C23.6917 42.3077 25 41.024 25 39.4501V2.85758C25 1.28495 23.6917 0 22.0933 0ZM9.43095 2.05978H15.5691C15.7633 2.05978 15.9207 2.21451 15.9207 2.4067C15.9207 2.59769 15.7633 2.75242 15.5691 2.75242H9.43095C9.23667 2.75242 9.07928 2.59769 9.07928 2.4067C9.07928 2.21451 9.23667 2.05978 9.43095 2.05978ZM12.5 40.8789C11.6971 40.8789 11.0466 40.2394 11.0466 39.4489C11.0466 38.6584 11.6971 38.0201 12.5 38.0201C13.3029 38.0201 13.9534 38.6584 13.9534 39.4489C13.9534 40.2394 13.3029 40.8789 12.5 40.8789ZM22.9773 37.0192H2.02267V4.53176H22.9773V37.0192Z" fill="white"/>
</svg>
